<?xml version="1.0" encoding="iso-8859-1"?>
<!-- Generator: Adobe Illustrator 19.0.0, SVG Export Plug-In . SVG Version: 6.00 Build 0)  -->
<svg version="1.1" id="Layer_1" xmlns="http://www.w3.org/2000/svg" xmlns:xlink="http://www.w3.org/1999/xlink" x="0px" y="0px"
	 viewBox="0 0 511.997 511.997" style="enable-background:new 0 0 511.997 511.997;" xml:space="preserve">
<g>
	<g>
		<g>
			<path d="M59.732,153.597c-23.526,0-42.667,19.14-42.667,42.667V315.73c0,23.526,19.14,42.667,42.667,42.667
				c23.526,0,42.667-19.14,42.667-42.667V196.264C102.399,172.737,83.258,153.597,59.732,153.597z"/>
			<path d="M452.265,153.597c-23.526,0-42.667,19.14-42.667,42.667V315.73c0,23.526,19.14,42.667,42.667,42.667
				s42.667-19.14,42.667-42.667V196.264C494.932,172.737,475.792,153.597,452.265,153.597z"/>
			<path d="M119.465,401.064h34.133v76.8c0,18.825,15.309,34.133,34.133,34.133s34.133-15.309,34.133-34.133v-76.8h68.267v76.8
				c0,18.825,15.309,34.133,34.133,34.133s34.133-15.309,34.133-34.133v-76.8h34.133V153.597H119.465V401.064z"/>
			<path d="M357.375,57.136c-5.726-5.82-12.894-11.998-21.623-17.715l13.244-27.153c2.074-4.233,0.316-9.344-3.925-11.409
				c-4.258-2.057-9.335-0.29-11.401,3.934l-12.8,26.232c-16.845-8.132-37.973-13.961-64.06-13.961
				c-25.967,0-47.71,5.393-65.843,13.926L178.345,4.818c-2.031-4.241-7.125-6.008-11.392-3.977
				c-4.241,2.048-6.025,7.151-3.968,11.401l12.996,26.957c-36.54,23.467-54.084,60.826-56.482,88.047l-0.819,9.284h274.637
				l-0.819-9.284C390.894,108.976,380.816,80.961,357.375,57.136z M213.332,102.397c-9.421,0-17.067-7.637-17.067-17.067
				c0-9.429,7.646-17.067,17.067-17.067c9.421,0,17.067,7.637,17.067,17.067C230.399,94.76,222.753,102.397,213.332,102.397z
				 M298.665,102.397c-9.421,0-17.067-7.637-17.067-17.067c0-9.429,7.646-17.067,17.067-17.067c9.421,0,17.067,7.637,17.067,17.067
				C315.732,94.76,308.086,102.397,298.665,102.397z"/>
		</g>
	</g>
</g>
<g>
</g>
<g>
</g>
<g>
</g>
<g>
</g>
<g>
</g>
<g>
</g>
<g>
</g>
<g>
</g>
<g>
</g>
<g>
</g>
<g>
</g>
<g>
</g>
<g>
</g>
<g>
</g>
<g>
</g>
</svg>
