<?xml version="1.0" encoding="UTF-8"?>
<svg version="1.1" viewBox="0 0 256 256" xml:space="preserve" xmlns="http://www.w3.org/2000/svg">


<g transform="translate(1.4066 1.4066) scale(2.81)">
	<path d="m45 88.11h40.852c3.114 0 5.114-3.307 3.669-6.065l-40.852-77.936c-1.551-2.959-5.786-2.959-7.337 0l-40.853 77.937c-1.446 2.758 0.555 6.065 3.669 6.065h40.852z" fill="#d60000" stroke-linecap="round"/>
	<path d="m45 64.091v0c-1.554 0-2.832-1.223-2.9-2.776l-2.677-25.83c-0.243-3.245 2.323-6.011 5.577-6.011h0c3.254 0 5.821 2.767 5.577 6.011l-2.677 25.83c-0.068 1.552-1.346 2.776-2.9 2.776z" fill="#fff" stroke-linecap="round"/>
	<circle cx="44.996" cy="74.026" r="4.626" fill="#fff"/>
</g>
</svg>
