<?xml version="1.0" encoding="UTF-8"?>
<svg width="700pt" height="700pt" version="1.1" viewBox="0 0 700 700" xmlns="http://www.w3.org/2000/svg">
<path d="m581.02 17.5c-5.4297-0.054688-11.246 0.71484-17.277 2.0156-16.086 3.4648-34.918 11.246-55.578 22.406-41.32 22.32-89.75 58.289-133.06 101.6-38.844 38.852-61.992 67.734-81.348 106.11l-21.602 21.602c-10.727 1.2383-23.109 5.4219-35.324 10.938-9.7812 4.4141-19.18 9.5859-26.883 15.328-67.527 0.027344-122.45 54.965-122.45 122.5 0 67.551 54.949 122.5 122.5 122.5 35.137-0.27344 60.199-13.383 79.641-29.668 3.4336-2.957 12.789-6.7656 16.852-6.9023 25.539-0.86328 46.426-6.2656 61.746-16.285 18.105-11.285 24.574-27.77 25.516-43.391 0.003906-16.168-8.5234-30.758-21.551-41.305-6.7539-5.4688-14.855-9.7734-23.859-12.953 5.2539-11.836 9.2266-23.762 10.426-34.145l21.566-21.566c38.395-19.309 67.246-42.531 106.14-81.383 43.312-43.312 79.281-91.742 101.6-133.06 11.16-20.66 18.938-39.492 22.406-55.578 3.4648-16.086 3.1445-30.711-6.4414-40.297-7.0312-6.5469-14.008-8.1562-23.02-8.4609zm10.648 20.832c2.7852 2.7852 4.6172 10.742 1.707 24.234-2.9062 13.492-10.051 31.238-20.695 50.945-21.289 39.41-56.461 86.879-98.578 128.99-36.801 36.75-63.336 57.656-97.703 75.555l-64.465-64.465c17.949-34.387 38.797-60.953 75.535-97.703 42.117-42.117 89.602-77.285 129.01-98.578 19.707-10.645 37.453-17.789 50.945-20.695 9.4141-2.1523 20.332-2.2344 24.234 1.707zm-290.8 228.93 61.863 61.863-12.375 12.375-61.863-61.863zm-27.445 22.047 39.887 39.887c-0.38281 1.5781-0.97266 3.8477-2.0156 6.8008-1.5703 4.4492-3.7773 9.8945-6.3242 15.434-5.0898 11.074-12.039 22.773-16.473 27.207-12.375 12.375-23.531 23.625-47.234 35.48-4.3242 2.1602-6.0742 7.418-3.9141 11.742s7.418 6.0742 11.742 3.9141c25.793-12.895 39.41-26.387 51.781-38.762 7.9414-7.9414 14.477-20.273 19.996-32.281 2.5195-5.4844 4.7031-10.812 6.4258-15.551l13.398 13.398c-0.94531 7.4844-3.8125 18.344-8.8008 29.395-5.5273 12.246-12.922 24.062-18.645 29.789-13.301 13.301-43.672 28.934-72.699 37.137-14.512 4.1016-28.758 6.4648-40.23 6.3906-11.469-0.074219-19.59-2.8086-23.191-6.4102-3.6016-3.6016-6.3359-11.723-6.4102-23.191-0.074219-11.469 2.2891-25.715 6.3906-40.23 8.2031-29.027 23.836-59.398 37.137-72.699 5.7227-5.7227 17.543-13.117 29.789-18.645 11.051-4.9883 21.91-7.8555 29.395-8.8008zm190.33 139.43c-23.469 0-43.75 17.059-43.75 39.375s20.281 39.375 43.75 39.375 43.75-17.059 43.75-39.375-20.281-39.375-43.75-39.375z" fill-rule="evenodd"/>
</svg>
